<mxfile host="Electron" agent="Mozilla/5.0 (X11; Linux x86_64) AppleWebKit/537.36 (KHTML, like Gecko) draw.io/28.1.2 Chrome/138.0.7204.243 Electron/37.4.0 Safari/537.36" version="28.1.2">
  <diagram name="Page-1" id="DgOE5qVcDpSAjkpMK9ub">
    <mxGraphModel dx="1360" dy="841" grid="1" gridSize="10" guides="1" tooltips="1" connect="1" arrows="1" fold="1" page="1" pageScale="1" pageWidth="850" pageHeight="1100" math="0" shadow="0">
      <root>
        <mxCell id="0" />
        <mxCell id="1" parent="0" />
        <mxCell id="fhvyuvNnrtl3i7gsskAm-19" style="edgeStyle=orthogonalEdgeStyle;rounded=0;orthogonalLoop=1;jettySize=auto;html=1;entryX=0;entryY=0.25;entryDx=0;entryDy=0;" edge="1" parent="1" source="fhvyuvNnrtl3i7gsskAm-1" target="fhvyuvNnrtl3i7gsskAm-8">
          <mxGeometry relative="1" as="geometry" />
        </mxCell>
        <mxCell id="fhvyuvNnrtl3i7gsskAm-1" value="User" style="swimlane;childLayout=stackLayout;horizontal=1;startSize=50;horizontalStack=0;rounded=1;fontSize=14;fontStyle=0;strokeWidth=2;resizeParent=0;resizeLast=1;shadow=0;dashed=0;align=center;arcSize=4;whiteSpace=wrap;html=1;" vertex="1" parent="1">
          <mxGeometry x="310" y="140" width="160" height="180" as="geometry" />
        </mxCell>
        <mxCell id="fhvyuvNnrtl3i7gsskAm-2" value="- user_id (pk)&lt;div&gt;&lt;div&gt;- currency_id (fk)&lt;/div&gt;&lt;div&gt;- username&lt;/div&gt;&lt;div&gt;- password_hashed&lt;/div&gt;&lt;div&gt;- first_name&lt;/div&gt;&lt;div&gt;- last_name&lt;/div&gt;&lt;div&gt;- permission&lt;/div&gt;&lt;/div&gt;" style="align=left;strokeColor=none;fillColor=none;spacingLeft=4;spacingRight=4;fontSize=12;verticalAlign=top;resizable=0;rotatable=0;part=1;html=1;whiteSpace=wrap;" vertex="1" parent="fhvyuvNnrtl3i7gsskAm-1">
          <mxGeometry y="50" width="160" height="130" as="geometry" />
        </mxCell>
        <mxCell id="fhvyuvNnrtl3i7gsskAm-18" style="edgeStyle=orthogonalEdgeStyle;rounded=0;orthogonalLoop=1;jettySize=auto;html=1;entryX=0.5;entryY=0;entryDx=0;entryDy=0;" edge="1" parent="1" source="fhvyuvNnrtl3i7gsskAm-4" target="fhvyuvNnrtl3i7gsskAm-11">
          <mxGeometry relative="1" as="geometry" />
        </mxCell>
        <mxCell id="fhvyuvNnrtl3i7gsskAm-4" value="Stocks" style="swimlane;childLayout=stackLayout;horizontal=1;startSize=50;horizontalStack=0;rounded=1;fontSize=14;fontStyle=0;strokeWidth=2;resizeParent=0;resizeLast=1;shadow=0;dashed=0;align=center;arcSize=4;whiteSpace=wrap;html=1;" vertex="1" parent="1">
          <mxGeometry x="640" y="530" width="160" height="150" as="geometry" />
        </mxCell>
        <mxCell id="fhvyuvNnrtl3i7gsskAm-5" value="- stock_id (pk)&lt;div&gt;- country_id(fk)&lt;/div&gt;&lt;div&gt;- name&lt;/div&gt;&lt;div&gt;- ticker&lt;/div&gt;&lt;div&gt;- asset_type&lt;/div&gt;&lt;div&gt;- industry&lt;/div&gt;" style="align=left;strokeColor=none;fillColor=none;spacingLeft=4;spacingRight=4;fontSize=12;verticalAlign=top;resizable=0;rotatable=0;part=1;html=1;whiteSpace=wrap;" vertex="1" parent="fhvyuvNnrtl3i7gsskAm-4">
          <mxGeometry y="50" width="160" height="100" as="geometry" />
        </mxCell>
        <mxCell id="fhvyuvNnrtl3i7gsskAm-7" value="Currencies" style="swimlane;childLayout=stackLayout;horizontal=1;startSize=50;horizontalStack=0;rounded=1;fontSize=14;fontStyle=0;strokeWidth=2;resizeParent=0;resizeLast=1;shadow=0;dashed=0;align=center;arcSize=4;whiteSpace=wrap;html=1;" vertex="1" parent="1">
          <mxGeometry x="440" y="410" width="160" height="120" as="geometry" />
        </mxCell>
        <mxCell id="fhvyuvNnrtl3i7gsskAm-8" value="- currency_id (pk)&lt;div&gt;- name&lt;/div&gt;&lt;div&gt;- code&lt;/div&gt;&lt;div&gt;- value_to_usd&lt;/div&gt;" style="align=left;strokeColor=none;fillColor=none;spacingLeft=4;spacingRight=4;fontSize=12;verticalAlign=top;resizable=0;rotatable=0;part=1;html=1;whiteSpace=wrap;" vertex="1" parent="fhvyuvNnrtl3i7gsskAm-7">
          <mxGeometry y="50" width="160" height="70" as="geometry" />
        </mxCell>
        <mxCell id="fhvyuvNnrtl3i7gsskAm-20" style="edgeStyle=orthogonalEdgeStyle;rounded=0;orthogonalLoop=1;jettySize=auto;html=1;entryX=0;entryY=0.25;entryDx=0;entryDy=0;" edge="1" parent="1" source="fhvyuvNnrtl3i7gsskAm-9" target="fhvyuvNnrtl3i7gsskAm-5">
          <mxGeometry relative="1" as="geometry" />
        </mxCell>
        <mxCell id="fhvyuvNnrtl3i7gsskAm-9" value="Orders" style="swimlane;childLayout=stackLayout;horizontal=1;startSize=50;horizontalStack=0;rounded=1;fontSize=14;fontStyle=0;strokeWidth=2;resizeParent=0;resizeLast=1;shadow=0;dashed=0;align=center;arcSize=4;whiteSpace=wrap;html=1;" vertex="1" parent="1">
          <mxGeometry x="410" y="740" width="160" height="140" as="geometry" />
        </mxCell>
        <mxCell id="fhvyuvNnrtl3i7gsskAm-10" value="- order_id (pk)&lt;div&gt;- stock_id (fk)&lt;/div&gt;&lt;div&gt;- transaction_type&lt;/div&gt;&lt;div&gt;- shares&lt;/div&gt;&lt;div&gt;- date&lt;/div&gt;" style="align=left;strokeColor=none;fillColor=none;spacingLeft=4;spacingRight=4;fontSize=12;verticalAlign=top;resizable=0;rotatable=0;part=1;html=1;whiteSpace=wrap;" vertex="1" parent="fhvyuvNnrtl3i7gsskAm-9">
          <mxGeometry y="50" width="160" height="90" as="geometry" />
        </mxCell>
        <mxCell id="fhvyuvNnrtl3i7gsskAm-11" value="Countries" style="swimlane;childLayout=stackLayout;horizontal=1;startSize=50;horizontalStack=0;rounded=1;fontSize=14;fontStyle=0;strokeWidth=2;resizeParent=0;resizeLast=1;shadow=0;dashed=0;align=center;arcSize=4;whiteSpace=wrap;html=1;" vertex="1" parent="1">
          <mxGeometry x="590" y="250" width="160" height="120" as="geometry" />
        </mxCell>
        <mxCell id="fhvyuvNnrtl3i7gsskAm-12" value="- country_id (pk)&lt;div&gt;- currency_id (fk)&lt;/div&gt;&lt;div&gt;- name&lt;/div&gt;&lt;div&gt;- code&lt;/div&gt;" style="align=left;strokeColor=none;fillColor=none;spacingLeft=4;spacingRight=4;fontSize=12;verticalAlign=top;resizable=0;rotatable=0;part=1;html=1;whiteSpace=wrap;" vertex="1" parent="fhvyuvNnrtl3i7gsskAm-11">
          <mxGeometry y="50" width="160" height="70" as="geometry" />
        </mxCell>
        <mxCell id="fhvyuvNnrtl3i7gsskAm-13" value="Portfolio" style="swimlane;childLayout=stackLayout;horizontal=1;startSize=50;horizontalStack=0;rounded=1;fontSize=14;fontStyle=0;strokeWidth=2;resizeParent=0;resizeLast=1;shadow=0;dashed=0;align=center;arcSize=4;whiteSpace=wrap;html=1;" vertex="1" parent="1">
          <mxGeometry x="40" y="490" width="160" height="120" as="geometry" />
        </mxCell>
        <mxCell id="fhvyuvNnrtl3i7gsskAm-14" value="- portfolio_id (pk)&lt;div&gt;- account_type&lt;/div&gt;" style="align=left;strokeColor=none;fillColor=none;spacingLeft=4;spacingRight=4;fontSize=12;verticalAlign=top;resizable=0;rotatable=0;part=1;html=1;whiteSpace=wrap;" vertex="1" parent="fhvyuvNnrtl3i7gsskAm-13">
          <mxGeometry y="50" width="160" height="70" as="geometry" />
        </mxCell>
        <mxCell id="fhvyuvNnrtl3i7gsskAm-23" style="edgeStyle=orthogonalEdgeStyle;rounded=0;orthogonalLoop=1;jettySize=auto;html=1;entryX=0;entryY=0.5;entryDx=0;entryDy=0;" edge="1" parent="1" source="fhvyuvNnrtl3i7gsskAm-15" target="fhvyuvNnrtl3i7gsskAm-9">
          <mxGeometry relative="1" as="geometry" />
        </mxCell>
        <mxCell id="fhvyuvNnrtl3i7gsskAm-15" value="PortfolioOrders" style="swimlane;childLayout=stackLayout;horizontal=1;startSize=50;horizontalStack=0;rounded=1;fontSize=14;fontStyle=0;strokeWidth=2;resizeParent=0;resizeLast=1;shadow=0;dashed=0;align=center;arcSize=4;whiteSpace=wrap;html=1;" vertex="1" parent="1">
          <mxGeometry x="160" y="750" width="160" height="120" as="geometry" />
        </mxCell>
        <mxCell id="fhvyuvNnrtl3i7gsskAm-16" value="- portfolio_id (fk)&lt;div&gt;- orders_id (fk)&lt;/div&gt;" style="align=left;strokeColor=none;fillColor=none;spacingLeft=4;spacingRight=4;fontSize=12;verticalAlign=top;resizable=0;rotatable=0;part=1;html=1;whiteSpace=wrap;" vertex="1" parent="fhvyuvNnrtl3i7gsskAm-15">
          <mxGeometry y="50" width="160" height="70" as="geometry" />
        </mxCell>
        <mxCell id="fhvyuvNnrtl3i7gsskAm-17" style="edgeStyle=orthogonalEdgeStyle;rounded=0;orthogonalLoop=1;jettySize=auto;html=1;entryX=0.5;entryY=0;entryDx=0;entryDy=0;" edge="1" parent="1" source="fhvyuvNnrtl3i7gsskAm-12" target="fhvyuvNnrtl3i7gsskAm-7">
          <mxGeometry relative="1" as="geometry" />
        </mxCell>
        <mxCell id="fhvyuvNnrtl3i7gsskAm-28" style="edgeStyle=orthogonalEdgeStyle;rounded=0;orthogonalLoop=1;jettySize=auto;html=1;entryX=0.45;entryY=1.029;entryDx=0;entryDy=0;entryPerimeter=0;" edge="1" parent="1" source="fhvyuvNnrtl3i7gsskAm-15" target="fhvyuvNnrtl3i7gsskAm-14">
          <mxGeometry relative="1" as="geometry" />
        </mxCell>
        <mxCell id="fhvyuvNnrtl3i7gsskAm-32" style="edgeStyle=orthogonalEdgeStyle;rounded=0;orthogonalLoop=1;jettySize=auto;html=1;entryX=0;entryY=0.25;entryDx=0;entryDy=0;" edge="1" parent="1" source="fhvyuvNnrtl3i7gsskAm-29" target="fhvyuvNnrtl3i7gsskAm-2">
          <mxGeometry relative="1" as="geometry" />
        </mxCell>
        <mxCell id="fhvyuvNnrtl3i7gsskAm-29" value="UserPortfolios" style="swimlane;childLayout=stackLayout;horizontal=1;startSize=50;horizontalStack=0;rounded=1;fontSize=14;fontStyle=0;strokeWidth=2;resizeParent=0;resizeLast=1;shadow=0;dashed=0;align=center;arcSize=4;whiteSpace=wrap;html=1;" vertex="1" parent="1">
          <mxGeometry x="40" y="250" width="160" height="120" as="geometry" />
        </mxCell>
        <mxCell id="fhvyuvNnrtl3i7gsskAm-30" value="&lt;div&gt;- user_id (fk)&lt;/div&gt;- portfolio_id (fk)" style="align=left;strokeColor=none;fillColor=none;spacingLeft=4;spacingRight=4;fontSize=12;verticalAlign=top;resizable=0;rotatable=0;part=1;html=1;whiteSpace=wrap;" vertex="1" parent="fhvyuvNnrtl3i7gsskAm-29">
          <mxGeometry y="50" width="160" height="70" as="geometry" />
        </mxCell>
        <mxCell id="fhvyuvNnrtl3i7gsskAm-33" style="edgeStyle=orthogonalEdgeStyle;rounded=0;orthogonalLoop=1;jettySize=auto;html=1;entryX=0.5;entryY=0;entryDx=0;entryDy=0;" edge="1" parent="1" source="fhvyuvNnrtl3i7gsskAm-30" target="fhvyuvNnrtl3i7gsskAm-13">
          <mxGeometry relative="1" as="geometry" />
        </mxCell>
      </root>
    </mxGraphModel>
  </diagram>
</mxfile>
